<svg width="67" height="13" viewBox="0 0 67 13" fill="none" xmlns="http://www.w3.org/2000/svg">
<path d="M8.55469 1.27273H1.82173V10H3.13423V2.39773H7.24219V10H8.55469V1.27273ZM10.4659 12.4545H11.7401V8.98153H11.8168C12.0469 9.39915 12.5156 10.1278 13.7088 10.1278C15.294 10.1278 16.4446 8.85795 16.4446 6.74006C16.4446 4.6179 15.277 3.36932 13.696 3.36932C12.4815 3.36932 12.0426 4.1108 11.8168 4.51562H11.7102V3.45455H10.4659V12.4545ZM11.7145 6.72727C11.7145 5.35938 12.3111 4.4517 13.4233 4.4517C14.5781 4.4517 15.1577 5.42756 15.1577 6.72727C15.1577 8.03977 14.5611 9.04119 13.4233 9.04119C12.3281 9.04119 11.7145 8.10369 11.7145 6.72727ZM20.6293 10.1321C22.4744 10.1321 23.6804 8.78125 23.6804 6.7571C23.6804 4.72017 22.4744 3.36932 20.6293 3.36932C18.7841 3.36932 17.5781 4.72017 17.5781 6.7571C17.5781 8.78125 18.7841 10.1321 20.6293 10.1321ZM20.6335 9.0625C19.4276 9.0625 18.8651 8.00994 18.8651 6.75284C18.8651 5.5 19.4276 4.43466 20.6335 4.43466C21.831 4.43466 22.3935 5.5 22.3935 6.75284C22.3935 8.00994 21.831 9.0625 20.6335 9.0625ZM27.9194 12.2287H29.1935V10.1321C31.043 10.1321 32.3001 8.77699 32.3001 6.7571C32.3001 4.72443 31.043 3.36932 29.1935 3.36932V1.27273H27.9194V3.36932C26.07 3.36932 24.8086 4.72443 24.8086 6.7571C24.8086 8.77699 26.07 10.1321 27.9194 10.1321V12.2287ZM27.9194 9.05824C26.6964 9.05824 26.0998 7.99716 26.0998 6.7571C26.0998 5.51705 26.6964 4.44318 27.9194 4.44318V9.05824ZM29.1935 9.05824V4.44318C30.4165 4.44318 31.0089 5.51705 31.0089 6.7571C31.0089 7.99716 30.4165 9.05824 29.1935 9.05824ZM34.9645 8.21449V3.45455H33.7159V10H35.1009L37.973 5.2358V10H39.2216V3.45455H37.8494L34.9645 8.21449ZM40.419 10H40.8281C42.2557 10 42.7798 8.94318 42.8821 6.77841L42.9844 4.55398H45.1236V10H46.3722V3.45455H41.804L41.6889 6.35227C41.608 8.37216 41.3778 8.89631 40.6491 8.89631H40.4148L40.419 10ZM49.32 5.70455V3.45455H48.0714V10H50.9308C52.533 10 53.4279 9.07102 53.4279 7.83949C53.4279 6.58239 52.533 5.70455 50.9308 5.70455H49.32ZM49.32 6.80398H50.9308C51.6637 6.80398 52.1879 7.24716 52.1879 7.87784C52.1879 8.47443 51.6637 8.90057 50.9308 8.90057H49.32V6.80398Z" fill="#999999"/>
<path d="M62 10L66 6L62 2" stroke="#999999"/>
</svg>
